<svg width="100" height="100" viewBox="0 0 100 100" fill="none" xmlns="http://www.w3.org/2000/svg">
<g clip-path="url(#clip0_1267_20834)">
<path d="M100 50.0329C100 75.5923 79.2788 96.3136 53.7194 96.3136C28.16 96.3136 7.43652 75.5923 7.43652 50.0329C7.43652 24.4735 28.1579 3.75 53.7194 3.75C79.281 3.75 100 24.4691 100 50.0329Z" fill="#4E0D6B"/>
<path d="M66.0002 34.8911C61.2562 34.4077 58.4413 38.3753 56.1142 40.4881C58.3801 33.5176 62.9338 25.3572 65.1451 22.2536C66.1424 20.7138 65.1297 19.8871 64.1193 19.7383C63.1088 19.5874 61.4443 19.559 60.2305 21.4531C58.1636 24.6989 56.6216 27.8878 54.745 32.6908C50.9459 42.4434 50.2263 46.7565 52.3894 47.1349C54.2354 47.4586 55.0687 46.4919 56.4007 45.2168C60.3311 41.3761 63.0169 38.5109 64.6682 39.1517C66.3218 39.7969 66.1752 42.3603 66.3721 46.107C66.4902 47.4346 66.5142 47.8567 67.9731 47.6948C68.8851 47.5921 69.5369 47.1131 69.6594 46.1638C70.2762 39.9785 69.8059 35.2782 65.998 34.8911" fill="white"/>
<path d="M52.0832 26.5864C52.1948 26.453 52.2932 26.3261 52.3807 26.2015C53.1659 25.0073 53.1396 23.3056 51.7617 21.6653C50.5697 20.377 48.6843 19.5568 46.9433 19.5415C46.7618 19.5415 46.5781 19.5459 46.3922 19.5524V19.5612C39.8875 19.8433 31.3159 26.009 26.5107 33.0648C20.2051 42.3232 23.2759 49.1275 31.1432 49.2543C38.6299 49.379 43.7391 46.4744 47.3895 44.1188C48.4831 43.3161 49.347 42.8503 49.4192 41.3039C49.4192 41.2449 49.4149 41.1902 49.4127 41.1333V41.129C49.4127 41.129 49.4127 41.1268 49.4127 41.1246C49.4061 41.0349 49.3974 40.9518 49.3842 40.8709C49.2093 39.552 48.6537 39.3027 47.9954 39.4864C47.4595 39.6351 47.1293 39.832 45.747 40.6784C45.3642 40.8862 44.953 41.1136 44.509 41.3564C39.2335 44.3616 27.8711 46.4263 28.571 41.2821C28.9647 38.3709 31.2547 33.7625 37.545 28.3646C40.9352 25.6415 45.631 23.4347 48.1529 24.3686C48.166 24.373 48.1769 24.3795 48.19 24.3861C48.2513 24.4145 48.3081 24.4473 48.365 24.478C49.3339 25.0576 49.8392 26.4705 49.8392 26.4705C50.1235 27.2098 50.8671 28.0343 52.0832 26.582" fill="white"/>
<path d="M44.0431 60.923C45.3358 61.3998 46.8537 60.7196 47.5011 59.2389C48.1463 57.7582 47.8969 55.8772 46.4512 55.5776C45.0995 55.2976 43.5729 55.7613 42.9277 57.242C42.2825 58.7227 42.7111 60.4309 44.0453 60.923" fill="white"/>
<path d="M44.5287 63.6437C43.1464 62.7929 42.0812 62.7994 41.2676 64.4617C40.1499 66.7451 38.3324 74.9252 38.4899 77.95C38.5752 79.5992 38.702 80.3603 39.9159 80.2422C40.9505 80.1416 41.9019 79.5751 42.2234 77.7116C42.3218 76.5306 43.6013 70.5836 44.7583 67.7337C45.8957 64.9298 45.3183 64.1271 44.5309 63.6437" fill="white"/>
<path d="M32.906 77.7993C32.5517 78.0924 30.9113 79.175 30.4848 77.7227C30.1414 76.5548 30.9485 72.9087 31.7928 69.2496C31.994 68.4885 32.2761 67.4933 32.6064 66.38C35.0626 65.4417 37.0639 64.7396 37.7091 64.5275C38.9733 64.1097 39.1482 63.3005 39.2248 62.3644C39.2904 61.5398 38.7917 61.3823 37.3788 61.6317C36.2196 61.8219 35.0407 62.0691 33.8574 62.3556C34.7476 59.6063 35.7012 56.8898 36.3618 55.4529C37.2913 53.4297 36.8014 52.6752 35.2069 52.7451C33.8378 52.8042 32.6939 53.5916 32.158 54.8405C31.3072 56.833 30.0605 60.1028 28.98 63.7445C27.1953 64.3197 25.4434 64.943 23.7855 65.5708C22.4601 66.1438 21.9789 66.8087 21.8783 68.366C21.7099 70.9818 23.3196 70.3126 25.2925 69.418C26.0886 69.0484 26.9263 68.6809 27.7705 68.32C26.491 73.5736 25.9617 77.1431 26.6332 79.4353C27.5868 82.6986 31.9699 82.832 34.5486 79.7962C34.5486 79.7962 35.5438 78.6851 35.0385 77.7446C34.2271 76.2333 33.794 77.0556 32.906 77.7949" fill="white"/>
<path d="M86.3323 55.7656C82.0191 56.5879 77.6076 59.7375 75.6107 64.7964C75.0683 66.2618 74.8124 68.1756 75.1951 69.7788C75.2192 69.8838 75.2476 69.9844 75.2761 70.0828C75.3001 70.1638 75.3264 70.2425 75.3548 70.3212C75.3898 70.4219 75.4248 70.5181 75.4685 70.6121L75.486 70.6537C76.2909 72.3991 78.1763 73.0946 80.7724 72.8146C80.9605 72.7949 81.1443 72.7687 81.3236 72.7424C81.3827 72.7337 81.4395 72.7271 81.5008 72.7162C85.289 72.095 87.4543 70.1878 88.2438 69.3567C88.8803 68.6305 89.0925 67.467 88.6988 66.6643C88.4494 66.1525 87.9989 65.7588 87.0343 66.8808C86.8178 67.0777 86.6319 67.2526 86.4547 67.4123C86.4547 67.4123 86.4547 67.4123 86.4525 67.4123C86.1354 67.6966 85.8445 67.9307 85.4705 68.1625C82.9049 69.9079 80.7396 69.7285 80.0529 69.6082C79.5892 69.5273 78.9943 69.208 78.7756 68.355C78.7581 68.3025 78.7406 68.2522 78.7274 68.1953C78.7318 68.1953 78.7362 68.1953 78.7406 68.1953L78.8062 68.1887C80.1688 68.0313 85.1971 67.3204 88.4254 63.0401C91.9927 58.3136 90.4507 54.9826 86.3344 55.7699M79.2152 65.2732C81.3061 60.1049 85.4968 58.7992 86.1245 58.9567C87.0387 59.2826 85.6608 63.226 79.2152 65.2732Z" fill="white"/>
<path d="M69.0688 60.5534C65.7137 60.9777 63.7343 64.9081 62.3564 66.8765C63.2925 61.5048 60.7882 60.8421 59.1762 61.3517C56.5975 62.0844 54.0735 64.6106 51.0727 69.3415C51.567 67.8826 52.2298 66.0432 52.6038 64.9168C53.3299 62.7231 52.2779 62.3228 50.9218 62.5765C49.6883 62.8106 49.0102 63.4558 48.7281 64.3307C47.9516 66.345 47.372 68.1342 46.8777 71.918C46.7159 73.1603 46.6284 74.4157 46.659 75.4918C46.659 75.5159 46.659 75.5378 46.659 75.5618C46.7246 77.983 47.4026 78.5189 48.2338 78.5101C49.008 78.5036 49.7867 78.0924 50.3903 77.0972C50.3991 77.0819 50.4078 77.0666 50.4166 77.0513C50.4516 76.9944 50.4844 76.9354 50.5194 76.8741C51.0771 75.8768 51.9017 74.1839 53.6645 71.1568C55.7249 67.8673 57.5752 65.5905 58.835 65.7545C59.5743 65.9273 58.8088 67.8454 58.437 74.3326C58.3342 75.6602 59.4081 75.868 60.143 75.7805C61.0331 75.6755 61.5734 75.2644 62.2908 73.6043C63.0104 71.9442 64.9766 67.7405 67.002 65.3433C68.6992 63.3311 69.2547 64.3022 69.0842 66.6469C69.0338 67.3358 68.6773 70.2732 67.9184 72.806C67.54 74.2714 68.3646 74.5317 69.1607 74.5754C69.9546 74.6213 71.2298 74.3501 71.7744 72.3357C72.4371 69.8905 72.7674 67.0778 72.7061 64.7747C72.6361 62.1916 71.4113 60.2559 69.0667 60.5534" fill="white"/>
<path d="M88.9131 44.9478C88.397 44.6416 88.0754 44.2217 87.8567 43.7558C87.8436 43.7295 87.8327 43.7011 87.8195 43.6727C87.7911 43.6049 87.7627 43.5371 87.7364 43.4693C87.3143 42.2554 87.5571 40.3613 86.9797 39.9063C86.1507 39.3202 85.3174 39.5214 84.5672 39.9873C84.1407 40.2519 83.6836 40.6806 83.0252 41.1793C82.8437 41.3018 82.6578 41.433 82.4609 41.5817C82.3472 41.6627 82.2204 41.7436 82.0935 41.8245C82.017 41.8726 81.936 41.9229 81.8551 41.971C81.7764 42.0192 81.6954 42.0673 81.6123 42.1132C81.5577 42.146 81.503 42.1766 81.4461 42.2094C80.3744 42.7978 79.0643 43.3358 78.0122 43.5502C78.01 43.5502 78.01 43.5502 78.0057 43.5502C77.566 43.6399 77.1767 43.6683 76.8661 43.6224C76.2997 43.489 76.2844 42.9356 76.8596 41.8551C77.5814 40.5035 78.9483 38.6815 80.0616 37.7214C82.0454 36.0132 83.2483 35.5779 83.9679 35.532C85.8117 35.4183 83.607 38.3075 86.3607 38.4191C87.6293 38.4716 88.2154 37.6361 88.4998 36.245C88.935 33.7648 87.8567 32.4087 85.6061 32.0631C82.415 31.5754 76.42 34.1541 73.6116 39.6854C71.7438 42.9575 71.8291 46.2514 74.1869 47.1175C76.7262 48.0492 80.8687 47.0322 84.4841 44.5213C84.7815 45.6608 86.282 47.5833 88.3904 47.8239C89.9017 48.0252 91.3037 47.3909 91.3037 45.9386C91.3037 44.8253 89.9389 45.6236 88.9109 44.95" fill="white"/>
<path d="M41.9631 11.7614C38.748 12.9556 36.3333 11.9429 34.6426 11.7898C34.2118 11.7504 33.2844 11.6302 32.1405 11.7395C31.6571 11.7745 31.1607 11.8423 30.6642 11.9582C26.8432 12.7347 24.7063 15.7902 23.4465 19.0556C23.4574 18.896 23.4727 18.7363 23.4793 18.5766C23.6958 14.3248 22.261 8.0563 17.0315 7.35859C13.1033 6.83367 10.0456 7.65824 6.71018 10.3375C6.68831 10.355 6.66644 10.3725 6.64457 10.39C6.58552 10.4381 6.52646 10.4841 6.46741 10.5344V10.5431C2.39488 14.0186 1.96401 18.417 3.75093 24.4448C4.3021 26.457 5.46787 28.2833 5.46787 28.2833C5.45474 28.2221 5.446 28.163 5.43506 28.1018C4.46395 23.0275 5.29945 17.634 10.7215 13.1524C15.7542 8.9946 20.1745 10.8603 21.688 14.7359C22.0773 15.858 22.3616 17.2993 22.3616 18.8063C22.3288 20.4292 22.1998 21.2078 21.2265 23.4431C20.8875 24.1911 20.555 24.9588 20.2532 25.6784C19.6473 27.0848 19.2537 28.0931 18.9912 28.8695C18.9759 28.9132 18.9606 28.957 18.9474 29.0007C18.849 29.2523 18.9453 29.5869 19.2252 29.6306C19.5271 29.6788 19.7917 29.5213 19.8573 29.3529C19.8989 29.2457 19.9382 29.1473 19.9798 29.0423C19.9885 29.0204 19.9973 28.9964 20.006 28.9723C20.8787 26.7195 22.1735 23.559 23.3196 21.4134C23.4968 21.081 23.6652 20.7835 23.8292 20.5145C23.8467 20.4839 23.8664 20.451 23.8861 20.4204C24.013 20.217 24.1354 20.0311 24.2557 19.8671C24.4154 19.6484 24.5729 19.4624 24.7304 19.3093L24.761 19.2765L24.785 19.2525C24.8047 19.2328 24.8266 19.2131 24.8463 19.1956C25.3318 18.745 25.7933 18.5985 26.5851 18.5045C26.6157 18.5023 26.6485 18.4979 26.6813 18.4935C27.5037 18.4082 28.3151 18.546 29.6209 18.5613C30.0714 18.5766 30.7429 18.5023 31.3619 18.3907C31.7818 18.3185 32.2302 18.2136 32.7157 18.0626H32.7114C36.5039 16.9603 38.8595 14.994 41.9609 11.757L41.9631 11.7614Z" fill="white"/>
<path opacity="0.7" d="M7.83221 35.1707C7.34228 33.5806 6.79986 32.3164 6.01248 30.4727C6.53959 32.5024 5.41538 33.8693 4.49239 35.1007C3.49941 36.4283 4.0987 38.4559 5.73689 38.5346C7.4757 38.6199 8.42712 37.102 7.83221 35.1707Z" fill="white"/>
<path opacity="0.7" d="M3.74875 24.4471C2.17179 19.1257 2.32271 15.0728 5.18135 11.8052C2.34239 12.3979 -0.660607 14.8869 0.126777 19.9262C0.367367 21.4638 1.14382 22.8264 2.02087 24.1365C3.1079 25.6675 4.47708 26.7961 5.17916 27.8044C4.79859 27.1307 4.12713 25.8337 3.74875 24.4471Z" fill="white"/>
</g>
<defs>
<clipPath id="clip0_1267_20834">
<rect width="100" height="100" fill="white"/>
</clipPath>
</defs>
</svg>
